<?xml version="1.0" encoding="UTF-8" standalone="no"?>
<!-- Created with Inkscape (http://www.inkscape.org/) -->

<svg
   width="281.23007mm"
   height="229.56473mm"
   viewBox="0 0 281.23007 229.56473"
   version="1.1"
   id="svg5"
   xml:space="preserve"
   xmlns="http://www.w3.org/2000/svg"
   xmlns:svg="http://www.w3.org/2000/svg"><defs
     id="defs2" /><g
     id="layer1"
     transform="translate(-20.866604,-11.263541)"><g
       style="fill:none;stroke:currentColor;stroke-width:1.49993;stroke-dasharray:none"
       id="g141"
       transform="matrix(6.0256003,0,0,6.0256003,-10.767798,100.73305)"><path
         d="M 10.5,1.5 H 8.25 A 2.25,2.25 0 0 0 6,3.75 v 16.5 a 2.25,2.25 0 0 0 2.25,2.25 h 7.5 A 2.25,2.25 0 0 0 18,20.25 V 3.75 A 2.25,2.25 0 0 0 15.75,1.5 H 13.5 m -3,0 V 3 h 3 V 1.5 m -3,0 h 3 m -3,18.75 h 3"
         stroke-linecap="round"
         stroke-linejoin="round"
         id="path132"
         style="stroke-width:1.49993;stroke-dasharray:none" /></g><path
       d="m 177.76444,157.53672 v 9.81981 c 9.3e-4,7.76156 -3.08253,15.20536 -8.57161,20.69278 l -6.05571,6.05571 h 11.61007 76.15384 l -6.05571,-6.05571 c -5.48908,-5.48742 -8.57254,-12.93122 -8.57161,-20.69278 v -9.81981 M 294.78298,40.518178 v 95.077572 c 0,12.11767 -9.8233,21.94097 -21.94097,21.94097 H 141.19614 c -12.11767,0 -21.94098,-9.8233 -21.94098,-21.94097 V 40.518178 m 175.52782,0 c 0,-12.117667 -9.8233,-21.940977 -21.94097,-21.940977 H 141.19614 c -12.11767,0 -21.94098,9.82331 -21.94098,21.940977 m 175.52782,0 v 65.822932 c 0,12.11767 -9.8233,21.94098 -21.94097,21.94098 H 141.19614 c -12.11767,0 -21.94098,-9.82331 -21.94098,-21.94098 V 40.518178"
       stroke-linecap="round"
       stroke-linejoin="round"
       id="path301"
       style="fill:none;stroke:#000000;stroke-width:9.038;stroke-dasharray:none" /></g></svg>
